<svg width="29" height="24" viewBox="0 0 29 24" fill="none" xmlns="http://www.w3.org/2000/svg">
<path fill-rule="evenodd" clip-rule="evenodd" d="M16.3994 8.80006C16.3994 12.9562 13.0163 16.3335 8.83304 16.3335C4.64978 16.3335 1.26667 12.9562 1.26667 8.80006C1.26667 4.64395 4.64978 1.26667 8.83304 1.26667C13.0163 1.26667 16.3994 4.64395 16.3994 8.80006ZM15.1676 14.933C13.5627 16.5781 11.3177 17.6001 8.83304 17.6001C3.95469 17.6001 0 13.6602 0 8.80006C0 3.93992 3.95469 0 8.83304 0C13.7114 0 17.6661 3.93992 17.6661 8.80006C17.6661 10.7292 17.043 12.5133 15.9865 13.9636L28.0639 22.9879L27.3021 23.9999L15.1676 14.933Z" fill="#757575"/>
</svg>
