<svg width="20" height="16" viewBox="0 0 20 16" fill="none" xmlns="http://www.w3.org/2000/svg">
<path fill-rule="evenodd" clip-rule="evenodd" d="M4.46561 3.89504C2.60741 5.71699 1.43103 7.73472 1.43103 7.73472C1.43103 7.73472 5.34099 14.4411 10.1642 14.4411C11.9261 14.4411 13.5661 13.5462 14.9382 12.4102L12.0142 10.0328C11.6026 11.0405 10.9273 11.6976 10.1642 11.6976C8.91015 11.6976 7.89356 9.92336 7.89356 7.73472C7.89356 7.39149 7.91856 7.05845 7.96556 6.74084L4.46561 3.89504ZM12.4066 8.3607C12.4252 8.1568 12.4348 7.94773 12.4348 7.73472C12.4348 5.54609 11.4182 3.77185 10.1642 3.77185C9.47838 3.77185 8.86359 4.30248 8.44725 5.14134L5.63921 2.85813C6.95888 1.81938 8.50767 1.02832 10.1642 1.02832C14.9874 1.02832 18.8973 7.73472 18.8973 7.73472C18.8973 7.73472 17.8144 9.59211 16.0854 11.3519L12.4066 8.3607Z" fill="#212121"/>
<path d="M1.75208 1.58716L18.248 15" stroke="#212121" stroke-width="1.55" stroke-linecap="round"/>
</svg>
